# xmcd CD database file
#
# Track frame offsets:
#	150
#	20701
#	34202
#	50328
#	62404
#	72080
#	76731
#	85657
#	98483
#	110409
#	122035
#	130136
#	141762
#	157738
#	164939
#	180240
#
# Disc length: 2614 seconds
#
# Revision: 0
# Processed by: cddbd v1.5.2PL0 Copyright (c) Steve Scherf et al.
# Submitted via: CDex 1.82
#
DISCID=c50a3410
DTITLE=Vrak'Trio - Connivence
DYEAR=2014
DGENRE=Jazz
TTITLE0=Alouette
TTITLE1=Silhouette 1
TTITLE2=Sparks
TTITLE3=Aquatique
TTITLE4=Rouge
TTITLE5=Bleu 1
TTITLE6=Bleu 2
TTITLE7=Bleu 3
TTITLE8=L'Arbre Tremble
TTITLE9=L'Or de l'Azur
TTITLE10=Danse
TTITLE11=Silhouette 2
TTITLE12=Yksnivarts
TTITLE13=Magne?tique
TTITLE14=Cache-Cache
TTITLE15=Silhouette 3
EXTD=YEAR: 2014
EXTT0=
EXTT1=
EXTT2=
EXTT3=
EXTT4=
EXTT5=
EXTT6=
EXTT7=
EXTT8=
EXTT9=
EXTT10=
EXTT11=
EXTT12=
EXTT13=
EXTT14=
EXTT15=
PLAYORDER=
